<svg xmlns="http://www.w3.org/2000/svg" viewBox="0 0 49.12 100" width="49.12" height="100"><circle cx="22.39" cy="99.28" r="3.6" fill="#8a8a90"/><circle cx="9.39" cy="94.94" r="3.6" fill="#8a8a90"/><circle cx="13.72" cy="94.94" r="3.6" fill="#8a8a90"/><circle cx="18.06" cy="94.94" r="3.6" fill="#8a8a90"/><circle cx="22.39" cy="94.94" r="3.6" fill="#8a8a90"/><circle cx="26.73" cy="94.94" r="3.6" fill="#8a8a90"/><circle cx="13.72" cy="90.61" r="3.6" fill="#8a8a90"/><circle cx="18.06" cy="90.61" r="3.6" fill="#8a8a90"/><circle cx="22.39" cy="90.61" r="3.6" fill="#8a8a90"/><circle cx="26.73" cy="90.61" r="3.6" fill="#8a8a90"/><circle cx="13.72" cy="86.27" r="3.6" fill="#8a8a90"/><circle cx="18.06" cy="86.27" r="3.6" fill="#8a8a90"/><circle cx="22.39" cy="86.27" r="3.6" fill="#8a8a90"/><circle cx="26.73" cy="86.27" r="3.6" fill="#8a8a90"/><circle cx="9.39" cy="81.94" r="3.6" fill="#8a8a90"/><circle cx="13.72" cy="81.94" r="3.6" fill="#8a8a90"/><circle cx="18.06" cy="81.94" r="3.6" fill="#8a8a90"/><circle cx="22.39" cy="81.94" r="3.6" fill="#8a8a90"/><circle cx="26.73" cy="81.94" r="3.6" fill="#8a8a90"/><circle cx="31.06" cy="81.94" r="3.6" fill="#8a8a90"/><circle cx="13.72" cy="77.60" r="3.6" fill="#8a8a90"/><circle cx="18.06" cy="77.60" r="3.6" fill="#8a8a90"/><circle cx="22.39" cy="77.60" r="3.6" fill="#8a8a90"/><circle cx="26.73" cy="77.60" r="3.6" fill="#8a8a90"/><circle cx="31.06" cy="77.60" r="3.6" fill="#8a8a90"/><circle cx="35.40" cy="77.60" r="3.6" fill="#8a8a90"/><circle cx="13.72" cy="73.27" r="3.6" fill="#8a8a90"/><circle cx="18.06" cy="73.27" r="3.6" fill="#8a8a90"/><circle cx="22.39" cy="73.27" r="3.6" fill="#8a8a90"/><circle cx="26.73" cy="73.27" r="3.6" fill="#8a8a90"/><circle cx="31.06" cy="73.27" r="3.6" fill="#8a8a90"/><circle cx="5.05" cy="68.94" r="3.6" fill="#8a8a90"/><circle cx="9.39" cy="68.94" r="3.6" fill="#8a8a90"/><circle cx="13.72" cy="68.94" r="3.6" fill="#8a8a90"/><circle cx="18.06" cy="68.94" r="3.6" fill="#8a8a90"/><circle cx="22.39" cy="68.94" r="3.6" fill="#8a8a90"/><circle cx="26.73" cy="68.94" r="3.6" fill="#8a8a90"/><circle cx="31.06" cy="68.94" r="3.6" fill="#8a8a90"/><circle cx="0.72" cy="64.60" r="3.6" fill="#8a8a90"/><circle cx="5.05" cy="64.60" r="3.6" fill="#8a8a90"/><circle cx="9.39" cy="64.60" r="3.6" fill="#8a8a90"/><circle cx="13.72" cy="64.60" r="3.6" fill="#8a8a90"/><circle cx="18.06" cy="64.60" r="3.6" fill="#8a8a90"/><circle cx="22.39" cy="64.60" r="3.6" fill="#8a8a90"/><circle cx="26.73" cy="64.60" r="3.6" fill="#8a8a90"/><circle cx="31.06" cy="64.60" r="3.6" fill="#8a8a90"/><circle cx="5.05" cy="60.27" r="3.6" fill="#8a8a90"/><circle cx="13.72" cy="60.27" r="3.6" fill="#8a8a90"/><circle cx="18.06" cy="60.27" r="3.6" fill="#8a8a90"/><circle cx="22.39" cy="60.27" r="3.6" fill="#8a8a90"/><circle cx="26.73" cy="60.27" r="3.6" fill="#8a8a90"/><circle cx="31.06" cy="60.27" r="3.6" fill="#8a8a90"/><circle cx="35.40" cy="60.27" r="3.6" fill="#8a8a90"/><circle cx="5.05" cy="55.93" r="3.6" fill="#8a8a90"/><circle cx="9.39" cy="55.93" r="3.6" fill="#8a8a90"/><circle cx="13.72" cy="55.93" r="3.6" fill="#8a8a90"/><circle cx="18.06" cy="55.93" r="3.6" fill="#8a8a90"/><circle cx="22.39" cy="55.93" r="3.6" fill="#8a8a90"/><circle cx="26.73" cy="55.93" r="3.6" fill="#8a8a90"/><circle cx="31.06" cy="55.93" r="3.6" fill="#8a8a90"/><circle cx="5.05" cy="51.60" r="3.6" fill="#8a8a90"/><circle cx="9.39" cy="51.60" r="3.6" fill="#8a8a90"/><circle cx="13.72" cy="51.60" r="3.6" fill="#8a8a90"/><circle cx="18.06" cy="51.60" r="3.6" fill="#8a8a90"/><circle cx="22.39" cy="51.60" r="3.6" fill="#8a8a90"/><circle cx="26.73" cy="51.60" r="3.6" fill="#8a8a90"/><circle cx="31.06" cy="51.60" r="3.6" fill="#8a8a90"/><circle cx="9.39" cy="47.26" r="3.6" fill="#8a8a90"/><circle cx="13.72" cy="47.26" r="3.6" fill="#8a8a90"/><circle cx="18.06" cy="47.26" r="3.6" fill="#8a8a90"/><circle cx="22.39" cy="47.26" r="3.6" fill="#8a8a90"/><circle cx="26.73" cy="47.26" r="3.6" fill="#8a8a90"/><circle cx="31.06" cy="47.26" r="3.6" fill="#8a8a90"/><circle cx="35.40" cy="47.26" r="3.6" fill="#8a8a90"/><circle cx="9.39" cy="42.93" r="3.6" fill="#8a8a90"/><circle cx="13.72" cy="42.93" r="3.6" fill="#8a8a90"/><circle cx="18.06" cy="42.93" r="3.6" fill="#8a8a90"/><circle cx="22.39" cy="42.93" r="3.6" fill="#8a8a90"/><circle cx="26.73" cy="42.93" r="3.6" fill="#8a8a90"/><circle cx="31.06" cy="42.93" r="3.6" fill="#8a8a90"/><circle cx="35.40" cy="42.93" r="3.6" fill="#8a8a90"/><circle cx="9.39" cy="38.59" r="3.6" fill="#8a8a90"/><circle cx="13.72" cy="38.59" r="3.6" fill="#8a8a90"/><circle cx="18.06" cy="38.59" r="3.6" fill="#8a8a90"/><circle cx="22.39" cy="38.59" r="3.6" fill="#8a8a90"/><circle cx="26.73" cy="38.59" r="3.6" fill="#8a8a90"/><circle cx="31.06" cy="38.59" r="3.6" fill="#8a8a90"/><circle cx="35.40" cy="38.59" r="3.6" fill="#8a8a90"/><circle cx="9.39" cy="35.70" r="3.6" fill="#8a8a90"/><circle cx="13.72" cy="35.70" r="3.6" fill="#8a8a90"/><circle cx="18.06" cy="35.70" r="3.6" fill="#8a8a90"/><circle cx="22.39" cy="35.70" r="3.6" fill="#8a8a90"/><circle cx="26.73" cy="35.70" r="3.6" fill="#8a8a90"/><circle cx="31.06" cy="35.70" r="3.6" fill="#8a8a90"/><circle cx="35.40" cy="35.70" r="3.6" fill="#8a8a90"/><circle cx="13.72" cy="31.37" r="3.6" fill="#8a8a90"/><circle cx="18.06" cy="31.37" r="3.6" fill="#8a8a90"/><circle cx="22.39" cy="31.37" r="3.6" fill="#8a8a90"/><circle cx="26.73" cy="31.37" r="3.6" fill="#8a8a90"/><circle cx="31.06" cy="31.37" r="3.6" fill="#8a8a90"/><circle cx="35.40" cy="31.37" r="3.6" fill="#8a8a90"/><circle cx="39.73" cy="31.37" r="3.6" fill="#8a8a90"/><circle cx="13.72" cy="27.04" r="3.6" fill="#8a8a90"/><circle cx="18.06" cy="27.04" r="3.6" fill="#8a8a90"/><circle cx="22.39" cy="27.04" r="3.6" fill="#8a8a90"/><circle cx="26.73" cy="27.04" r="3.6" fill="#8a8a90"/><circle cx="31.06" cy="27.04" r="3.6" fill="#8a8a90"/><circle cx="35.40" cy="27.04" r="3.6" fill="#8a8a90"/><circle cx="39.73" cy="27.04" r="3.6" fill="#8a8a90"/><circle cx="13.72" cy="22.70" r="3.6" fill="#8a8a90"/><circle cx="18.06" cy="22.70" r="3.6" fill="#8a8a90"/><circle cx="22.39" cy="22.70" r="3.6" fill="#8a8a90"/><circle cx="26.73" cy="22.70" r="3.6" fill="#8a8a90"/><circle cx="31.06" cy="22.70" r="3.6" fill="#8a8a90"/><circle cx="35.40" cy="22.70" r="3.6" fill="#8a8a90"/><circle cx="13.72" cy="18.37" r="3.6" fill="#8a8a90"/><circle cx="18.06" cy="18.37" r="3.6" fill="#8a8a90"/><circle cx="22.39" cy="18.37" r="3.6" fill="#8a8a90"/><circle cx="26.73" cy="18.37" r="3.6" fill="#8a8a90"/><circle cx="31.06" cy="18.37" r="3.6" fill="#8a8a90"/><circle cx="35.40" cy="18.37" r="3.6" fill="#8a8a90"/><circle cx="39.73" cy="18.37" r="3.6" fill="#8a8a90"/><circle cx="13.72" cy="14.03" r="3.6" fill="#8a8a90"/><circle cx="18.06" cy="14.03" r="3.6" fill="#8a8a90"/><circle cx="22.39" cy="14.03" r="3.6" fill="#8a8a90"/><circle cx="26.73" cy="14.03" r="3.6" fill="#8a8a90"/><circle cx="31.06" cy="14.03" r="3.6" fill="#8a8a90"/><circle cx="35.40" cy="14.03" r="3.6" fill="#8a8a90"/><circle cx="39.73" cy="14.03" r="3.6" fill="#8a8a90"/><circle cx="44.07" cy="14.03" r="3.6" fill="#8a8a90"/><circle cx="13.72" cy="9.70" r="3.6" fill="#8a8a90"/><circle cx="18.06" cy="9.70" r="3.6" fill="#8a8a90"/><circle cx="22.39" cy="9.70" r="3.6" fill="#8a8a90"/><circle cx="26.73" cy="9.70" r="3.6" fill="#8a8a90"/><circle cx="31.06" cy="9.70" r="3.6" fill="#8a8a90"/><circle cx="35.40" cy="9.70" r="3.6" fill="#8a8a90"/><circle cx="39.73" cy="9.70" r="3.6" fill="#8a8a90"/><circle cx="44.07" cy="9.70" r="3.6" fill="#8a8a90"/><circle cx="13.72" cy="5.36" r="3.6" fill="#8a8a90"/><circle cx="18.06" cy="5.36" r="3.6" fill="#8a8a90"/><circle cx="26.73" cy="5.36" r="3.6" fill="#8a8a90"/><circle cx="35.40" cy="5.36" r="3.6" fill="#8a8a90"/><circle cx="39.73" cy="5.36" r="3.6" fill="#8a8a90"/><circle cx="18.06" cy="1.03" r="3.6" fill="#8a8a90"/></svg>
